STARTFONT 2.1
COMMENT
COMMENT Converted from OpenType font "VeraMoIt.ttf" by "otf2bdf 3.0".
COMMENT The Bitstream Vera fonts are available for free copying and 
COMMENT redistribution. They can be modified as long as the font name is 
COMMENT changed.
COMMENT This one has been modified by conversion to BDF, so is now named
COMMENT Arev Mono Italic, and has been reduced to only the characters used
COMMENT by collective.captcha.
COMMENT
FONT -FreeType-collective.captcha Arev Mono-Medium-I-Normal--17-120-100-100-P-82-ASCII-1
SIZE 12 100 100
FONTBOUNDINGBOX 12 20 -1 -4
CHARS 61
STARTCHAR 002D
ENCODING 45
SWIDTH 600 0
DWIDTH 10 0
BBX 4 1 3 4
BITMAP
F0
ENDCHAR
STARTCHAR 002E
ENCODING 46
SWIDTH 600 0
DWIDTH 10 0
BBX 2 2 3 1
BITMAP
C0
C0
ENDCHAR
STARTCHAR 002F
ENCODING 47
SWIDTH 600 0
DWIDTH 10 0
BBX 8 13 0 -1
BITMAP
01
03
02
06
04
0C
08
18
10
30
60
40
C0
ENDCHAR
STARTCHAR 0032
ENCODING 50
SWIDTH 600 0
DWIDTH 10 0
BBX 9 12 0 0
BITMAP
1F00
3180
0180
0180
0180
0300
0600
0C00
1800
3000
E000
FF00
ENDCHAR
STARTCHAR 0033
ENCODING 51
SWIDTH 600 0
DWIDTH 10 0
BBX 9 12 0 0
BITMAP
3F00
2380
0180
0180
0300
1C00
0700
0300
0100
0300
8600
FC00
ENDCHAR
STARTCHAR 0034
ENCODING 52
SWIDTH 600 0
DWIDTH 10 0
BBX 9 12 0 0
BITMAP
0380
0380
0500
0B00
1B00
3300
6300
4200
FF80
0600
0600
0600
ENDCHAR
STARTCHAR 0035
ENCODING 53
SWIDTH 600 0
DWIDTH 10 0
BBX 9 12 0 0
BITMAP
1F80
1000
3000
3000
3E00
2300
0100
0100
0100
0300
C600
FC00
ENDCHAR
STARTCHAR 0036
ENCODING 54
SWIDTH 600 0
DWIDTH 10 0
BBX 8 12 1 0
BITMAP
0F
31
60
40
DC
E6
C3
C3
82
86
CC
78
ENDCHAR
STARTCHAR 0037
ENCODING 55
SWIDTH 600 0
DWIDTH 10 0
BBX 8 12 2 0
BITMAP
FF
02
06
0C
0C
18
10
30
60
60
C0
C0
ENDCHAR
STARTCHAR 0038
ENCODING 56
SWIDTH 600 0
DWIDTH 10 0
BBX 9 12 0 0
BITMAP
0F00
3980
3080
2180
3100
1E00
6300
4100
C100
C300
6700
3C00
ENDCHAR
STARTCHAR 0039
ENCODING 57
SWIDTH 600 0
DWIDTH 10 0
BBX 8 12 1 0
BITMAP
3C
66
43
C3
C3
C3
C7
7A
06
04
1C
F0
ENDCHAR
STARTCHAR 003A
ENCODING 58
SWIDTH 600 0
DWIDTH 10 0
BBX 3 8 3 1
BITMAP
60
60
00
00
00
00
C0
C0
ENDCHAR
STARTCHAR 0040
ENCODING 64
SWIDTH 600 0
DWIDTH 10 0
BBX 10 13 0 -2
BITMAP
0F80
1880
2040
4740
CDC0
98C0
9080
9080
9980
8E80
C000
6000
3E00
ENDCHAR
STARTCHAR 0041
ENCODING 65
SWIDTH 600 0
DWIDTH 10 0
BBX 10 12 -1 0
BITMAP
0300
0700
0700
0D80
0D80
1980
1980
3180
3F80
6080
6080
C0C0
ENDCHAR
STARTCHAR 0042
ENCODING 66
SWIDTH 600 0
DWIDTH 10 0
BBX 9 12 0 0
BITMAP
3F00
3180
3080
3080
2180
7E00
6300
6180
6180
4180
C300
FE00
ENDCHAR
STARTCHAR 0043
ENCODING 67
SWIDTH 600 0
DWIDTH 10 0
BBX 9 12 1 0
BITMAP
0F80
3980
3000
6000
4000
C000
C000
C000
C000
C000
6200
3C00
ENDCHAR
STARTCHAR 0044
ENCODING 68
SWIDTH 600 0
DWIDTH 10 0
BBX 9 12 0 0
BITMAP
3E00
3380
2180
2180
6180
6180
6180
4180
4100
C300
CE00
F800
ENDCHAR
STARTCHAR 0045
ENCODING 69
SWIDTH 600 0
DWIDTH 10 0
BBX 9 12 1 0
BITMAP
3F80
6000
6000
6000
6000
7F00
C000
C000
C000
C000
8000
FE00
ENDCHAR
STARTCHAR 0046
ENCODING 70
SWIDTH 600 0
DWIDTH 10 0
BBX 9 12 1 0
BITMAP
3F80
2000
2000
6000
6000
7F00
4000
4000
C000
C000
C000
C000
ENDCHAR
STARTCHAR 0047
ENCODING 71
SWIDTH 600 0
DWIDTH 10 0
BBX 8 12 1 0
BITMAP
0F
39
60
40
C0
C0
C7
83
82
C2
E6
7C
ENDCHAR
STARTCHAR 0048
ENCODING 72
SWIDTH 600 0
DWIDTH 10 0
BBX 10 12 0 0
BITMAP
30C0
30C0
20C0
2080
6080
7F80
6180
4180
4100
C100
C300
C300
ENDCHAR
STARTCHAR 004A
ENCODING 74
SWIDTH 600 0
DWIDTH 10 0
BBX 9 12 0 0
BITMAP
0F80
0180
0100
0100
0300
0300
0300
0200
0200
0600
CC00
F800
ENDCHAR
STARTCHAR 004B
ENCODING 75
SWIDTH 600 0
DWIDTH 10 0
BBX 10 12 0 0
BITMAP
30C0
3180
2300
2600
6C00
7C00
7C00
4600
4600
C300
C300
C180
ENDCHAR
STARTCHAR 004C
ENCODING 76
SWIDTH 600 0
DWIDTH 10 0
BBX 7 12 1 0
BITMAP
30
20
60
60
60
60
40
40
C0
C0
C0
FE
ENDCHAR
STARTCHAR 004D
ENCODING 77
SWIDTH 600 0
DWIDTH 10 0
BBX 10 12 0 0
BITMAP
30C0
31C0
71C0
7BC0
6AC0
4C80
4C80
C880
C180
C180
8100
8100
ENDCHAR
STARTCHAR 004E
ENCODING 78
SWIDTH 600 0
DWIDTH 10 0
BBX 10 12 0 0
BITMAP
38C0
38C0
28C0
2880
6880
6D80
6D80
4580
4500
C500
C700
C300
ENDCHAR
STARTCHAR 0050
ENCODING 80
SWIDTH 600 0
DWIDTH 10 0
BBX 9 12 1 0
BITMAP
3F00
6300
6180
6180
6180
4300
FE00
C000
C000
C000
8000
8000
ENDCHAR
STARTCHAR 0051
ENCODING 81
SWIDTH 600 0
DWIDTH 10 0
BBX 8 14 1 -2
BITMAP
1E
33
61
41
C1
C3
C3
83
82
86
CC
78
08
08
ENDCHAR
STARTCHAR 0052
ENCODING 82
SWIDTH 600 0
DWIDTH 10 0
BBX 9 12 0 0
BITMAP
3F00
3180
3080
2080
2180
6100
7E00
6600
6300
4100
C100
C180
ENDCHAR
STARTCHAR 0053
ENCODING 83
SWIDTH 600 0
DWIDTH 10 0
BBX 9 12 0 0
BITMAP
0F80
3880
2000
2000
3000
3C00
0F00
0100
0180
0100
C700
7C00
ENDCHAR
STARTCHAR 0054
ENCODING 84
SWIDTH 600 0
DWIDTH 10 0
BBX 10 12 1 0
BITMAP
FFC0
0C00
0C00
0800
1800
1800
1800
1800
1000
3000
3000
3000
ENDCHAR
STARTCHAR 0055
ENCODING 85
SWIDTH 600 0
DWIDTH 10 0
BBX 9 12 1 0
BITMAP
6180
6180
6180
4100
C300
C300
C300
C300
8200
8600
CC00
7800
ENDCHAR
STARTCHAR 0056
ENCODING 86
SWIDTH 600 0
DWIDTH 10 0
BBX 9 12 2 0
BITMAP
8180
8300
8300
C600
C600
CC00
CC00
C800
D800
5000
7000
6000
ENDCHAR
STARTCHAR 0057
ENCODING 87
SWIDTH 600 0
DWIDTH 10 0
BBX 10 12 1 0
BITMAP
C0C0
C0C0
C080
9980
9980
9900
B900
AB00
EA00
CE00
CE00
8C00
ENDCHAR
STARTCHAR 0058
ENCODING 88
SWIDTH 600 0
DWIDTH 10 0
BBX 11 12 -1 0
BITMAP
1820
0860
0CC0
0D80
0700
0600
0600
0F00
1900
3180
6180
C080
ENDCHAR
STARTCHAR 0059
ENCODING 89
SWIDTH 600 0
DWIDTH 10 0
BBX 9 12 2 0
BITMAP
8180
C300
4600
6C00
6800
3800
3000
3000
2000
2000
6000
6000
ENDCHAR
STARTCHAR 005A
ENCODING 90
SWIDTH 600 0
DWIDTH 10 0
BBX 10 12 0 0
BITMAP
3FC0
00C0
0180
0300
0600
0600
0C00
1800
3000
6000
C000
FF00
ENDCHAR
STARTCHAR 0061
ENCODING 97
SWIDTH 600 0
DWIDTH 10 0
BBX 8 9 1 0
BITMAP
3E
43
03
3F
C3
82
86
CE
76
ENDCHAR
STARTCHAR 0062
ENCODING 98
SWIDTH 600 0
DWIDTH 10 0
BBX 8 12 1 0
BITMAP
20
20
60
7E
77
63
43
C3
C3
C6
CC
B8
ENDCHAR
STARTCHAR 0063
ENCODING 99
SWIDTH 600 0
DWIDTH 10 0
BBX 8 9 1 0
BITMAP
1F
31
60
40
C0
C0
C0
62
3C
ENDCHAR
STARTCHAR 0064
ENCODING 100
SWIDTH 600 0
DWIDTH 10 0
BBX 9 12 1 0
BITMAP
0080
0180
0180
1D00
7700
4300
C300
C300
C200
C600
CE00
7E00
ENDCHAR
STARTCHAR 0065
ENCODING 101
SWIDTH 600 0
DWIDTH 10 0
BBX 8 9 1 0
BITMAP
1E
73
41
C1
FF
80
80
E2
7C
ENDCHAR
STARTCHAR 0066
ENCODING 102
SWIDTH 600 0
DWIDTH 10 0
BBX 8 12 2 0
BITMAP
0F
18
10
FE
10
30
30
20
20
20
60
60
ENDCHAR
STARTCHAR 0067
ENCODING 103
SWIDTH 600 0
DWIDTH 10 0
BBX 9 12 0 -3
BITMAP
0E80
3380
2180
6180
6100
4100
4300
6700
3B00
0200
4600
FC00
ENDCHAR
STARTCHAR 0068
ENCODING 104
SWIDTH 600 0
DWIDTH 10 0
BBX 8 12 1 0
BITMAP
30
20
20
6E
73
63
43
43
C2
C2
C6
86
ENDCHAR
STARTCHAR 006A
ENCODING 106
SWIDTH 600 0
DWIDTH 10 0
BBX 8 15 0 -3
BITMAP
03
00
00
1E
02
06
06
04
04
04
0C
0C
08
18
F0
ENDCHAR
STARTCHAR 006B
ENCODING 107
SWIDTH 600 0
DWIDTH 10 0
BBX 8 12 1 0
BITMAP
30
20
20
63
66
6C
78
78
CC
C4
C6
82
ENDCHAR
STARTCHAR 006C
ENCODING 108
SWIDTH 600 0
DWIDTH 10 0
BBX 5 12 3 0
BITMAP
F0
30
20
20
60
60
40
40
C0
C0
C0
78
ENDCHAR
STARTCHAR 006D
ENCODING 109
SWIDTH 600 0
DWIDTH 10 0
BBX 10 9 0 0
BITMAP
3D80
66C0
64C0
4C80
4C80
4880
C980
C980
9900
ENDCHAR
STARTCHAR 006E
ENCODING 110
SWIDTH 600 0
DWIDTH 10 0
BBX 8 9 1 0
BITMAP
6E
73
63
43
43
C2
C2
C6
86
ENDCHAR
STARTCHAR 0070
ENCODING 112
SWIDTH 600 0
DWIDTH 10 0
BBX 9 12 0 -3
BITMAP
3700
3980
3080
2080
2180
6180
6100
7300
5E00
C000
C000
C000
ENDCHAR
STARTCHAR 0071
ENCODING 113
SWIDTH 600 0
DWIDTH 10 0
BBX 8 12 1 -3
BITMAP
3D
67
43
C3
C2
82
86
CE
76
04
04
04
ENDCHAR
STARTCHAR 0072
ENCODING 114
SWIDTH 600 0
DWIDTH 10 0
BBX 8 9 2 0
BITMAP
6F
71
60
40
40
C0
C0
C0
80
ENDCHAR
STARTCHAR 0073
ENCODING 115
SWIDTH 600 0
DWIDTH 10 0
BBX 8 9 1 0
BITMAP
1F
31
60
60
3C
06
02
8E
F8
ENDCHAR
STARTCHAR 0074
ENCODING 116
SWIDTH 600 0
DWIDTH 10 0
BBX 7 12 2 0
BITMAP
10
10
30
FE
20
20
20
60
60
40
60
78
ENDCHAR
STARTCHAR 0075
ENCODING 117
SWIDTH 600 0
DWIDTH 10 0
BBX 8 9 1 0
BITMAP
61
43
43
43
C2
C2
C6
CE
76
ENDCHAR
STARTCHAR 0076
ENCODING 118
SWIDTH 600 0
DWIDTH 10 0
BBX 8 9 2 0
BITMAP
83
86
86
CC
C8
D8
50
70
60
ENDCHAR
STARTCHAR 0077
ENCODING 119
SWIDTH 600 0
DWIDTH 10 0
BBX 9 9 1 0
BITMAP
8080
8080
8180
9900
9B00
AA00
AA00
CC00
CC00
ENDCHAR
STARTCHAR 0078
ENCODING 120
SWIDTH 600 0
DWIDTH 10 0
BBX 9 9 0 0
BITMAP
3080
3100
1A00
0E00
0C00
1C00
3600
6200
C300
ENDCHAR
STARTCHAR 0079
ENCODING 121
SWIDTH 600 0
DWIDTH 10 0
BBX 10 12 0 -3
BITMAP
20C0
2180
2100
3300
3200
1600
1C00
1800
1800
1000
3000
E000
ENDCHAR
STARTCHAR 007A
ENCODING 122
SWIDTH 600 0
DWIDTH 10 0
BBX 8 9 1 0
BITMAP
7F
03
06
0C
18
30
60
C0
FE
ENDCHAR
ENDFONT
